<?xml version="1.0" encoding="UTF-8" standalone="no"?>
<!-- Created with Inkscape (http://www.inkscape.org/) -->
<svg xmlns:inkscape="http://www.inkscape.org/namespaces/inkscape" xmlns:rdf="http://www.w3.org/1999/02/22-rdf-syntax-ns#" xmlns="http://www.w3.org/2000/svg" xmlns:xlink="http://www.w3.org/1999/xlink" xmlns:ns1="http://sozi.baierouge.fr" xmlns:cc="http://creativecommons.org/ns#" xmlns:sodipodi="http://sodipodi.sourceforge.net/DTD/sodipodi-0.dtd" xmlns:dc="http://purl.org/dc/elements/1.1/" id="svg2" xml:space="preserve" viewBox="0 0 48.15 35.65" version="1.1" inkscape:version="0.91 r13725">
  <defs id="defs6">
    <radialGradient id="radialGradient26" gradientUnits="userSpaceOnUse" cy="-4.2998" cx="40.7" gradientTransform="matrix(.8 0 0 -.8 -6.853e-7 21.64)" r="3.5875">
      <stop id="stop28" style="stop-color:#f7e35e" offset="0"/>
      <stop id="stop30" style="stop-color:#b6952a" offset=".72940"/>
      <stop id="stop32" style="stop-color:#805f1c" offset="1"/>
    </radialGradient>
    <radialGradient id="radialGradient46" gradientUnits="userSpaceOnUse" cy="-8.6499" cx="42.35" gradientTransform="matrix(.8 0 0 -.8 -6.853e-7 14.68)" r="2.225">
      <stop id="stop48" style="stop-color:#a38925" offset="0"/>
      <stop id="stop50" style="stop-color:#634d11" offset="1"/>
    </radialGradient>
    <radialGradient id="radialGradient64" gradientUnits="userSpaceOnUse" cy="-7.4502" cx="44.8" gradientTransform="matrix(.8 0 0 -.8 -6.853e-7 16.6)" r="3.0875">
      <stop id="stop66" style="stop-color:#f7e35e" offset="0"/>
      <stop id="stop68" style="stop-color:#b6952a" offset=".72940"/>
      <stop id="stop70" style="stop-color:#805f1c" offset="1"/>
    </radialGradient>
    <linearGradient id="linearGradient84" y2="-12.678" gradientUnits="userSpaceOnUse" x2="44.038" gradientTransform="matrix(.8 0 0 .8 -6.853e-7 28.52)" y1="-12.678" x1="3.8374">
      <stop id="stop86" style="stop-color:#c8a123" offset="0"/>
      <stop id="stop88" style="stop-color:#debe36" offset=".2902"/>
      <stop id="stop92" style="stop-color:#fefced" offset=".92160"/>
      <stop id="stop94" style="stop-color:#fefced" offset="1"/>
    </linearGradient>
    <linearGradient id="linearGradient108" y2="-18.51" gradientUnits="userSpaceOnUse" x2="41.787" gradientTransform="matrix(.8 0 0 .8 -6.853e-7 28.52)" y1="-18.51" x1="5.3125">
      <stop id="stop110" style="stop-color:#805f1c" offset="0"/>
      <stop id="stop112" style="stop-color:#b6952a" offset=".2157"/>
      <stop id="stop114" style="stop-color:#f8e87a" offset="0.851"/>
      <stop id="stop116" style="stop-color:#f8e87a" offset="1"/>
    </linearGradient>
    <linearGradient id="linearGradient130" y2="-31.216" gradientUnits="userSpaceOnUse" x2="43.9" gradientTransform="matrix(.8 0 0 .8 -6.853e-7 28.52)" y1="-31.216" x1="11.45">
      <stop id="stop132" style="stop-color:#c8a123" offset="0"/>
      <stop id="stop134" style="stop-color:#debe36" offset=".2902"/>
      <stop id="stop138" style="stop-color:#fefced" offset=".92160"/>
      <stop id="stop140" style="stop-color:#fefced" offset="1"/>
    </linearGradient>
    <linearGradient id="linearGradient154" y2="-30.8" gradientUnits="userSpaceOnUse" x2="42.062" gradientTransform="matrix(.8 0 0 .8 -6.853e-7 28.52)" y1="-30.8" x1="5.3374">
      <stop id="stop156" style="stop-color:#805f1c" offset="0"/>
      <stop id="stop158" style="stop-color:#b6952a" offset=".2157"/>
      <stop id="stop160" style="stop-color:#f8e87a" offset="0.851"/>
      <stop id="stop162" style="stop-color:#f8e87a" offset="1"/>
    </linearGradient>
    <radialGradient id="radialGradient176" gradientUnits="userSpaceOnUse" cy="-2.3999" cx="28.45" gradientTransform="matrix(.8 0 0 -.8 -6.853e-7 24.68)" r="3.8875">
      <stop id="stop178" style="stop-color:#f7e35e" offset="0"/>
      <stop id="stop180" style="stop-color:#b6952a" offset=".72940"/>
      <stop id="stop182" style="stop-color:#805f1c" offset="1"/>
    </radialGradient>
    <radialGradient id="radialGradient196" gradientUnits="userSpaceOnUse" cy="-7.1499" cx="35.2" gradientTransform="matrix(.8 0 0 -.8 -6.853e-7 17.08)" r="2.5875">
      <stop id="stop198" style="stop-color:#a38925" offset="0"/>
      <stop id="stop200" style="stop-color:#634d11" offset="1"/>
    </radialGradient>
    <radialGradient id="radialGradient214" gradientUnits="userSpaceOnUse" cy="-18.05" cx="25.1" gradientTransform="matrix(.8 0 0 -.8 -6.853e-7 -.35999)" r="14.162">
      <stop id="stop216" style="stop-color:#ae933d" offset="0"/>
      <stop id="stop218" style="stop-color:#a98d3a" offset=".2157"/>
      <stop id="stop220" style="stop-color:#997d31" offset=".498"/>
      <stop id="stop222" style="stop-color:#7e6323" offset=".81570"/>
      <stop id="stop224" style="stop-color:#6b5019" offset="1"/>
    </radialGradient>
    <radialGradient id="radialGradient238" gradientUnits="userSpaceOnUse" cy="-7.0498" cx="20.3" gradientTransform="matrix(.8 0 0 -.8 -6.853e-7 17.24)" r="2.5875">
      <stop id="stop240" style="stop-color:#a38925" offset="0"/>
      <stop id="stop242" style="stop-color:#634d11" offset="1"/>
    </radialGradient>
    <radialGradient id="radialGradient256" gradientUnits="userSpaceOnUse" cy="-3" cx="13.45" gradientTransform="matrix(.8 0 0 -.8 -6.853e-7 23.72)" r="3.8875">
      <stop id="stop258" style="stop-color:#f7e35e" offset="0"/>
      <stop id="stop260" style="stop-color:#b6952a" offset=".72940"/>
      <stop id="stop262" style="stop-color:#805f1c" offset="1"/>
    </radialGradient>
    <radialGradient id="radialGradient276" gradientUnits="userSpaceOnUse" cy="-5.6001" cx="4.0498" gradientTransform="matrix(.8 0 0 -.8 -6.853e-7 19.56)" r="3.4875">
      <stop id="stop278" style="stop-color:#f7e35e" offset="0"/>
      <stop id="stop280" style="stop-color:#b6952a" offset=".72940"/>
      <stop id="stop282" style="stop-color:#805f1c" offset="1"/>
    </radialGradient>
    <radialGradient id="radialGradient296" gradientUnits="userSpaceOnUse" cy="-8.0498" cx="2.25" gradientTransform="matrix(.8 0 0 -.8 -6.853e-7 15.64)" r="2.5875">
      <stop id="stop298" style="stop-color:#f7e35e" offset="0"/>
      <stop id="stop300" style="stop-color:#b6952a" offset=".60780"/>
      <stop id="stop302" style="stop-color:#805f1c" offset="1"/>
    </radialGradient>
    <linearGradient id="linearGradient316" y2="-12.675" gradientUnits="userSpaceOnUse" x2="44.062" gradientTransform="matrix(.8 0 0 .8 -6.853e-7 28.52)" y1="-12.675" x1="3.8374">
      <stop id="stop318" style="stop-color:#c8a123" offset="0"/>
      <stop id="stop320" style="stop-color:#debe36" offset=".2902"/>
      <stop id="stop324" style="stop-color:#fefced" offset=".92160"/>
      <stop id="stop326" style="stop-color:#fefced" offset="1"/>
    </linearGradient>
    <radialGradient id="radialGradient340" gradientUnits="userSpaceOnUse" cy="-8.0498" cx="7.2002" gradientTransform="matrix(.8 0 0 -.8 -6.853e-7 15.64)" r="2.3125">
      <stop id="stop342" style="stop-color:#a38925" offset="0"/>
      <stop id="stop344" style="stop-color:#634d11" offset="1"/>
    </radialGradient>
  </defs>
  <g id="g10" transform="matrix(1.25 0 0 -1.25 0 35.65)">
    <g id="g12">
      <path id="path14" style="fill-rule:evenodd;fill:#5c4a10" d="m32.559 22.84c-0.348-0.695-0.918-1.84-1.719-3.441l-0.84-1.68c-0.105-0.16-0.188-0.32-0.238-0.48-0.137 0.508-0.282 1.094-0.442 1.761-0.187 0.774-0.332 1.375-0.441 1.801 0.293 0.078 0.547 0.227 0.762 0.438 0.293 0.293 0.437 0.64 0.437 1.043 0 0.398-0.144 0.73-0.437 1-0.293 0.293-0.641 0.437-1.039 0.437-0.403 0-0.735-0.144-1-0.437-0.297-0.27-0.442-0.602-0.442-1 0-0.403 0.145-0.75 0.442-1.043 0.21-0.239 0.476-0.387 0.796-0.438l-1.636-5.281c-0.297 0.695-0.684 1.707-1.16 3.039-0.989 2.613-1.575 4.242-1.762 4.883-0.106 0.293-0.188 0.519-0.238 0.68 0.371 0.078 0.691 0.253 0.957 0.519 0.347 0.371 0.519 0.801 0.519 1.277 0 0.508-0.172 0.934-0.519 1.282-0.344 0.347-0.774 0.519-1.278 0.519-0.48 0-0.894-0.172-1.242-0.519-0.371-0.348-0.559-0.774-0.559-1.282 0-0.476 0.188-0.906 0.559-1.277 0.266-0.266 0.586-0.441 0.961-0.519-2.105-4.403-3.492-7.27-4.16-8.602-0.293 0.613-0.68 1.586-1.16 2.922-0.453 1.277-0.758 2.105-0.918 2.476 0.371 0.028 0.691 0.161 0.957 0.403 0.269 0.293 0.402 0.64 0.402 1.039 0 0.398-0.133 0.746-0.402 1.039-0.293 0.293-0.641 0.441-1.039 0.441-0.399 0-0.746-0.148-1.039-0.441s-0.442-0.641-0.442-1.039c0-0.399 0.149-0.746 0.442-1.039 0.265-0.242 0.586-0.375 0.961-0.403l-1.204-4.117c-0.078 0.133-0.16 0.266-0.238 0.399l-0.762 1.398c-1.437 2.695-2.253 4.297-2.437 4.801-0.055 0.133-0.106 0.242-0.16 0.32 0.293 0.106 0.547 0.266 0.758 0.481 0.347 0.347 0.519 0.773 0.519 1.281 0 0.504-0.172 0.934-0.519 1.277-0.348 0.348-0.774 0.524-1.278 0.524-0.48 0-0.894-0.176-1.242-0.524-0.371-0.343-0.559-0.769-0.559-1.277s0.188-0.934 0.559-1.281c0.293-0.293 0.656-0.465 1.082-0.52-0.32-1.199-1.055-3.988-2.199-8.359-0.348 0.531-0.856 1.613-1.524 3.238-0.32 0.75-0.57 1.348-0.757 1.801 0.16 0.082 0.304 0.187 0.437 0.32 0.242 0.238 0.363 0.547 0.363 0.918 0 0.375-0.121 0.684-0.363 0.922-0.266 0.266-0.57 0.398-0.918 0.398s-0.652-0.132-0.922-0.398c-0.265-0.266-0.398-0.574-0.398-0.922 0-0.371 0.133-0.68 0.398-0.918 0.215-0.215 0.469-0.347 0.762-0.398-0.027-0.27-0.039-0.59-0.039-0.961-0.027-0.563-0.039-1.121-0.039-1.68-0.75 1.785-1.242 3-1.481 3.641-0.082 0.238-0.16 0.437-0.242 0.597 0.242 0.082 0.469 0.227 0.68 0.442 0.32 0.293 0.48 0.664 0.48 1.121 0 0.453-0.16 0.824-0.48 1.117-0.32 0.32-0.707 0.481-1.16 0.481-0.426 0-0.797-0.161-1.117-0.481-0.321-0.32-0.481-0.691-0.481-1.117 0-0.137 0.012-0.27 0.039-0.402-0.375-0.028-0.68-0.172-0.922-0.442-0.293-0.293-0.437-0.637-0.437-1.039 0-0.398 0.144-0.746 0.437-1.039 0.27-0.266 0.602-0.398 1-0.398h0.321l0.203-1.321 0.437-2.922c0.082-0.531 0.176-1.546 0.281-3.039 0.106-1.625 0.227-3.8 0.36-6.519l1-0.442-1.121 15.403c0.136-0.028 0.281-0.227 0.441-0.602l0.078-1.359c0.055-0.641 0.137-1.281 0.242-1.922 0.188-1.199 0.426-2.399 0.719-3.598 0.028-0.082 0.227-2.015 0.602-5.801 0.16-1.546 0.984-2.507 2.48-2.878 1.387-0.375 2.574-0.641 3.559-0.801 2.16-0.188 4.652-0.281 7.48-0.281 5.52 0 9.707 0.265 12.559 0.8h0.121c-0.32-0.082-0.68-0.175-1.078-0.281-2.641-0.613-6.949-0.945-12.922-1-5.066-0.027-8.988 0.266-11.762 0.883l-0.117 0.039c-0.133 0-0.254-0.016-0.359-0.039-0.59-0.137-0.817-0.453-0.684-0.961v-0.082c0.11-0.399 0.254-0.734 0.442-1 0.402-0.184 0.761-0.332 1.082-0.438 2.586-0.773 6.73-1.16 12.437-1.16 5.789 0 10.094 0.387 12.922 1.16 1.519 0.426 2.84 1.106 3.961 2.039 0.531 1.012 0.211 1.934-0.961 2.758-0.106 0.082-0.215 0.149-0.32 0.203-0.028-0.296-0.039-0.601-0.039-0.921 0-0.051-0.016-0.106-0.043-0.161l0.043 0.801c0.05 2.426 0.132 4.465 0.238 6.121 0.082 1.813 0.199 3.145 0.359 4l0.281 1.598 0.399 2.242c0.133-0.027 0.266-0.043 0.402-0.043 0.399 0 0.746 0.137 1.039 0.402 0.266 0.293 0.399 0.641 0.399 1.04 0 0.375-0.133 0.707-0.399 1-0.293 0.265-0.64 0.402-1.039 0.402-0.402 0-0.734-0.137-1-0.402-0.242-0.239-0.375-0.508-0.402-0.801-0.211 0.109-0.426 0.16-0.641 0.16-0.343 0-0.636-0.117-0.879-0.359-0.105-0.106-0.187-0.227-0.238-0.36l-0.082 0.801v0.32c0.453 0 0.856 0.16 1.199 0.481 0.321 0.343 0.481 0.746 0.481 1.199s-0.16 0.84-0.481 1.16c-0.343 0.32-0.746 0.481-1.199 0.481s-0.84-0.161-1.16-0.481-0.481-0.707-0.481-1.16 0.161-0.856 0.481-1.199c0.215-0.215 0.441-0.364 0.68-0.442zm2.242 3.36c0.48-0.481 0.719-1.055 0.719-1.719l-0.04-0.359c0.239 0.078 0.508 0.117 0.801 0.117 0.614 0 1.145-0.211 1.598-0.641 0.426-0.426 0.641-0.945 0.641-1.558 0-0.586-0.188-1.094-0.559-1.52-0.402-0.426-0.883-0.668-1.441-0.719l-0.52-3.16c-0.238-1.387-0.441-4.469-0.602-9.242 0.747-0.504 1.227-1.094 1.442-1.758 0.215-0.668 0.148-1.348-0.199-2.043l-0.2-0.238-0.121-0.078c-1.175-0.961-2.586-1.668-4.242-2.121-2.906-0.774-7.25-1.161-13.039-1.161-5.305 0-9.293 0.333-11.961 1-1.519 0.375-2.906 1.012-4.156 1.918l-0.524 0.403c-0.105 0.027-0.183 0.105-0.238 0.238-0.453 0.695-0.601 1.375-0.441 2.039 0.16 0.641 0.574 1.203 1.242 1.684-0.16 4.265-0.348 7.093-0.563 8.476l-0.519 3.563c-0.531 0.105-0.984 0.359-1.359 0.758-0.348 0.429-0.52 0.921-0.52 1.48 0 0.988 0.441 1.68 1.32 2.082 0.055 0.613 0.305 1.133 0.758 1.559 0.453 0.425 1 0.64 1.641 0.64 0.613 0 1.16-0.199 1.64-0.601 0.453-0.426 0.707-0.934 0.762-1.52h0.039c0.586 0 1.078-0.211 1.481-0.64 0.398-0.399 0.597-0.891 0.597-1.481 0-0.613-0.199-1.117-0.597-1.519l1-2.481 1.48 5.563c-0.961 0.504-1.441 1.281-1.441 2.32 0 0.719 0.254 1.332 0.761 1.84 0.532 0.504 1.145 0.758 1.84 0.758 0.719 0 1.332-0.254 1.84-0.758 0.504-0.508 0.758-1.121 0.758-1.84 0-0.906-0.348-1.613-1.039-2.121l2.281-4.442 0.438 1.481c-0.774 0.453-1.161 1.109-1.161 1.961 0 0.613 0.227 1.148 0.68 1.601 0.453 0.454 0.988 0.68 1.602 0.68 0.613 0 1.148-0.226 1.601-0.68 0.426-0.453 0.641-0.988 0.641-1.601 0-0.828-0.363-1.465-1.082-1.918l0.359-1c0.242-0.75 0.481-1.402 0.723-1.961l3 6.238c-0.828 0.535-1.242 1.266-1.242 2.199 0 0.723 0.254 1.336 0.761 1.84 0.532 0.508 1.145 0.762 1.84 0.762 0.719 0 1.332-0.254 1.84-0.762 0.504-0.504 0.758-1.117 0.758-1.84 0-1.011-0.426-1.757-1.277-2.238 0.371-1.281 1.066-3.172 2.078-5.68l0.718 2.36c-0.691 0.426-1.039 1.066-1.039 1.922 0 0.613 0.215 1.144 0.641 1.597 0.453 0.426 0.988 0.641 1.602 0.641 0.613 0 1.144-0.215 1.597-0.641 0.453-0.453 0.68-0.984 0.68-1.597 0-0.828-0.359-1.469-1.078-1.922l0.238-0.801 1.481 3c-0.614 0.481-0.918 1.121-0.918 1.922 0 0.664 0.238 1.238 0.718 1.719 0.481 0.48 1.055 0.718 1.719 0.718 0.695 0 1.281-0.238 1.762-0.718zm-0.922-6.282-0.559-1.558c-0.027 0.64-0.066 1.332-0.121 2.082 0.055-0.055 0.106-0.121 0.16-0.203 0.161-0.16 0.336-0.266 0.52-0.321zm1.601 0.922c0.106-0.082 0.215-0.132 0.321-0.16-0.856-2.746-1.442-4.613-1.762-5.601l0.16 4.8h0.039c0.375 0 0.684 0.121 0.922 0.36 0.16 0.16 0.266 0.359 0.32 0.601zm-31.761 0.442 0.121-3.364c-0.028 0.055-0.051 0.11-0.078 0.161-0.348 0.48-0.617 0.972-0.801 1.48l-0.242 0.602c0.187 0.078 0.375 0.199 0.562 0.359 0.266 0.266 0.414 0.574 0.438 0.922v-0.16zm-0.117-15v0.476c-1.227-0.797-1.481-1.718-0.762-2.758 0.16-0.105 0.305-0.199 0.441-0.281-0.269 0.426-0.375 0.895-0.32 1.403 0.078 0.425 0.293 0.812 0.641 1.16z" inkscape:connector-curvature="0"/>
      <g id="g16">
        <g id="g18">
          <g id="g24">
            <path id="path34" style="fill-rule:evenodd;fill:url(#radialGradient26)" d="m33.039 22.801c-0.184 0-0.344 0.012-0.48 0.039-0.239 0.078-0.465 0.227-0.68 0.442-0.32 0.343-0.481 0.746-0.481 1.199s0.161 0.84 0.481 1.16 0.707 0.481 1.16 0.481 0.856-0.161 1.199-0.481c0.321-0.32 0.481-0.707 0.481-1.16s-0.16-0.856-0.481-1.199c-0.343-0.321-0.746-0.481-1.199-0.481z" inkscape:connector-curvature="0"/>
          </g>
        </g>
      </g>
      <g id="g36">
        <g id="g38">
          <g id="g44">
            <path id="path52" style="fill-rule:evenodd;fill:url(#radialGradient46)" d="m34.199 19.879c-0.105 0-0.211 0.016-0.32 0.039-0.184 0.055-0.359 0.161-0.52 0.321-0.054 0.082-0.105 0.148-0.16 0.203-0.027 0.211-0.039 0.437-0.039 0.68v0.199c0 0.133-0.015 0.254-0.039 0.359 0.051 0.133 0.133 0.254 0.238 0.36 0.243 0.242 0.536 0.359 0.879 0.359 0.215 0 0.43-0.051 0.641-0.16-0.024-0.051-0.039-0.117-0.039-0.199 0-0.399 0.148-0.747 0.441-1.04 0.051-0.054 0.117-0.105 0.199-0.16-0.054-0.242-0.16-0.441-0.32-0.601-0.238-0.239-0.547-0.36-0.922-0.36h-0.039z" inkscape:connector-curvature="0"/>
          </g>
        </g>
      </g>
      <g id="g54">
        <g id="g56">
          <g id="g62">
            <path id="path72" style="fill-rule:evenodd;fill:url(#radialGradient64)" d="m35.801 20.68c-0.106 0.028-0.215 0.078-0.321 0.16-0.082 0.055-0.148 0.106-0.199 0.16-0.293 0.293-0.441 0.641-0.441 1.04 0 0.082 0.015 0.148 0.039 0.199 0.027 0.293 0.16 0.562 0.402 0.801 0.266 0.265 0.598 0.402 1 0.402 0.399 0 0.746-0.137 1.039-0.402 0.266-0.293 0.399-0.625 0.399-1 0-0.399-0.133-0.747-0.399-1.04-0.293-0.265-0.64-0.402-1.039-0.402-0.136 0-0.269 0.016-0.402 0.043-0.024 0.024-0.051 0.039-0.078 0.039z" inkscape:connector-curvature="0"/>
          </g>
        </g>
      </g>
      <g id="g74">
        <g id="g76">
          <g id="g82">
            <path id="path96" style="fill-rule:evenodd;fill:url(#linearGradient84)" d="m5.922 17.641c0.051-0.082 0.09-0.176 0.117-0.281l0.121-0.281c0.028-0.051 0.051-0.106 0.078-0.161 0.59-1.359 0.989-2.21 1.203-2.558v-0.039l0.039-0.039 0.04-0.082c0.214-0.215 0.414-0.305 0.601-0.282 0.106 0 0.199 0.028 0.277 0.082 0.11 0.106 0.215 0.293 0.321 0.559 0 0.055 0.015 0.121 0.043 0.199 0.05 0.188 0.105 0.375 0.16 0.563 1.144 4.371 1.879 7.16 2.199 8.359h0.16c0.184 0 0.36 0.012 0.52 0.039 0.054-0.078 0.105-0.187 0.16-0.32 0.184-0.504 1-2.106 2.437-4.801l0.762-1.398c0.078-0.133 0.16-0.266 0.238-0.399 0.829-1.519 1.321-2.359 1.481-2.519 0.562-0.508 1.094-0.321 1.601 0.558 0.079 0.133 0.2 0.36 0.36 0.68 0.668 1.332 2.055 4.199 4.16 8.602h0.602c0.05-0.161 0.132-0.387 0.238-0.68 0.187-0.641 0.773-2.27 1.762-4.883 0.476-1.332 0.863-2.344 1.16-3.039 0.105-0.293 0.199-0.535 0.277-0.719 0.082-0.187 0.133-0.308 0.16-0.359 0.16-0.27 0.293-0.414 0.403-0.442 0.183-0.054 0.425 0.145 0.718 0.598 0.16 0.27 0.508 0.91 1.039 1.922 0.106 0.238 0.243 0.48 0.403 0.719 0.05 0.16 0.133 0.32 0.238 0.48l0.84 1.68c0.801 1.601 1.375 2.746 1.719 3.441 0.136-0.027 0.296-0.039 0.48-0.039v-0.32l0.082-0.801c0.024-0.105 0.039-0.226 0.039-0.359v-0.199c0-0.243 0.012-0.469 0.039-0.68 0.055-0.75 0.094-1.442 0.121-2.082l0.559 1.558c0.109-0.023 0.215-0.039 0.32-0.039l-0.16-4.8c0.32 0.988 0.906 2.855 1.762 5.601 0.027 0 0.054-0.015 0.078-0.039l-0.399-2.242c-1.015-3.305-1.601-5.094-1.761-5.359-0.106-0.215-0.293 2.039-0.559 6.761-0.16 1.891-0.238 2.758-0.238 2.598 0-0.106-0.695-1.531-2.082-4.277-1.36-2.696-2.199-4.309-2.52-4.84-0.293-0.43-0.535-0.629-0.718-0.602-0.11 0.028-0.243 0.188-0.403 0.481-0.133 0.265-0.664 1.64-1.597 4.121-0.989 2.586-1.575 4.211-1.762 4.879-0.215 0.64-0.36 1.027-0.442 1.16-0.05 0.105-0.117 0.078-0.199-0.082-2.746-5.731-4.32-8.973-4.719-9.719-0.507-0.855-1.039-1.027-1.601-0.52-0.184 0.133-1.012 1.559-2.481 4.282-1.41 2.664-2.226 4.265-2.437 4.797-0.402 0.933-0.629 1.269-0.68 1-0.054-0.161-0.894-3.36-2.519-9.598-0.137-0.563-0.348-0.84-0.641-0.84-0.187-0.027-0.387 0.067-0.601 0.277-0.106 0.11-0.598 1.161-1.481 3.161-0.824 1.949-1.359 3.254-1.598 3.921-0.109 0.266-0.203 0.493-0.281 0.68-0.16 0.375-0.305 0.574-0.441 0.602v0.558c0.16 0 0.32 0.012 0.48 0.039 0.082-0.16 0.16-0.359 0.242-0.597 0.239-0.641 0.731-1.856 1.481-3.641z" inkscape:connector-curvature="0"/>
          </g>
        </g>
      </g>
      <g id="g98">
        <g id="g100">
          <g id="g106">
            <path id="path118" style="fill-rule:evenodd;fill:url(#linearGradient108)" d="m34.559 5.879-0.039-0.238c-0.321-0.266-1.161-0.535-2.52-0.801h-0.121c-2.852-0.535-7.039-0.8-12.559-0.8-2.828 0-5.32 0.093-7.48 0.281-0.985 0.16-2.172 0.426-3.559 0.801-1.496 0.371-2.32 1.332-2.48 2.878-0.375 3.786-0.574 5.719-0.602 5.801-0.293 1.199-0.531 2.399-0.719 3.598-0.105 0.641-0.187 1.281-0.242 1.922l-0.078 1.359c0.078-0.187 0.172-0.414 0.281-0.68 0.239-0.667 0.774-1.972 1.598-3.921 0.883-2 1.375-3.051 1.481-3.161 0.214-0.21 0.414-0.304 0.601-0.277 0.293 0 0.504 0.277 0.641 0.84 1.625 6.238 2.465 9.437 2.519 9.598 0.051 0.269 0.278-0.067 0.68-1 0.211-0.532 1.027-2.133 2.437-4.797 1.469-2.723 2.297-4.149 2.481-4.282 0.562-0.507 1.094-0.335 1.601 0.52 0.399 0.746 1.973 3.988 4.719 9.719 0.082 0.16 0.149 0.187 0.199 0.082 0.082-0.133 0.227-0.52 0.442-1.16 0.187-0.668 0.773-2.293 1.762-4.879 0.933-2.481 1.464-3.856 1.597-4.121 0.16-0.293 0.293-0.453 0.403-0.481 0.183-0.027 0.425 0.172 0.718 0.602 0.321 0.531 1.16 2.144 2.52 4.84 1.387 2.746 2.082 4.171 2.082 4.277 0 0.16 0.078-0.707 0.238-2.598 0.266-4.722 0.453-6.976 0.559-6.761 0.16 0.265 0.75 2.054 1.761 5.359l-0.281-1.598c-0.16-0.855-0.277-2.187-0.359-4-0.106-1.656-0.188-3.695-0.238-6.121l-0.043-0.801zm-31.797 12.922 0.199-0.519c0.211-0.59 0.504-1.149 0.879-1.684l-0.039 1.363c-0.028 0.028-0.039 0.067-0.039 0.118 0.023-0.051 0.05-0.106 0.078-0.161l-0.121 3.364 1.121-15.403-1 0.442c-0.133 2.719-0.254 4.894-0.36 6.519-0.105 1.493-0.199 2.508-0.281 3.039l-0.437 2.922z" inkscape:connector-curvature="0"/>
          </g>
        </g>
      </g>
      <g id="g120">
        <g id="g122">
          <g id="g128">
            <path id="path142" style="fill-rule:evenodd;fill:url(#linearGradient130)" d="m32.84 4.079c1.254 0.402 2.015 0.8 2.281 1.203-0.187-2.028-4.414-3.176-12.68-3.442-4.027-0.105-7.441 0.121-10.242 0.68l-3.039 0.922 2-0.524c2.293-0.293 5.828-0.386 10.602-0.277 4.879 0.133 8.57 0.613 11.078 1.438z" inkscape:connector-curvature="0"/>
          </g>
        </g>
      </g>
      <g id="g144">
        <g id="g146">
          <g id="g152">
            <path id="path164" style="fill-rule:evenodd;fill:url(#linearGradient154)" d="m32 4.84c1.359 0.266 2.199 0.535 2.52 0.801l0.039 0.238c0.027 0.055 0.043 0.106 0.043 0.161 0 0.32 0.011 0.625 0.039 0.921 0.105-0.054 0.214-0.121 0.32-0.203 1.172-0.824 1.492-1.746 0.961-2.758-1.121-0.933-2.442-1.613-3.961-2.039-2.828-0.773-7.133-1.16-12.922-1.16-5.707 0-9.851 0.387-12.437 1.16-0.321 0.106-0.68 0.254-1.082 0.438-0.188 0.266-0.332 0.601-0.442 1v0.082c-0.133 0.504 0.094 0.824 0.684 0.961 0.105 0.023 0.226 0.039 0.359 0.039l0.117-0.039c2.774-0.617 6.696-0.91 11.762-0.883 5.973 0.055 10.281 0.387 12.922 1 0.398 0.106 0.758 0.199 1.078 0.281zm0.84-0.761c-2.508-0.825-6.199-1.305-11.078-1.438-4.774-0.109-8.309-0.016-10.602 0.277l-2 0.524 3.039-0.922c2.801-0.559 6.215-0.785 10.242-0.68 8.266 0.266 12.493 1.414 12.68 3.442-0.266-0.403-1.027-0.801-2.281-1.203zm-29.238 2.203c-0.348-0.348-0.563-0.735-0.641-1.16-0.055-0.508 0.051-0.977 0.32-1.403-0.136 0.082-0.281 0.176-0.441 0.281-0.719 1.04-0.465 1.961 0.762 2.758v-0.476z" inkscape:connector-curvature="0"/>
          </g>
        </g>
      </g>
      <g id="g166">
        <g id="g168">
          <g id="g174">
            <path id="path184" style="fill-rule:evenodd;fill:url(#radialGradient176)" d="m23.602 24.122h-0.602c-0.375 0.078-0.695 0.253-0.961 0.519-0.371 0.371-0.559 0.801-0.559 1.277 0 0.508 0.188 0.934 0.559 1.282 0.348 0.347 0.762 0.519 1.242 0.519 0.504 0 0.934-0.172 1.278-0.519 0.347-0.348 0.519-0.774 0.519-1.282 0-0.476-0.172-0.906-0.519-1.277-0.266-0.266-0.586-0.441-0.957-0.519z" inkscape:connector-curvature="0"/>
          </g>
        </g>
      </g>
      <g id="g186">
        <g id="g188">
          <g id="g194">
            <path id="path202" style="fill-rule:evenodd;fill:url(#radialGradient196)" d="m28.879 20.801h-0.481c-0.32 0.051-0.586 0.199-0.796 0.438-0.297 0.293-0.442 0.64-0.442 1.043 0 0.398 0.145 0.73 0.442 1 0.265 0.293 0.597 0.437 1 0.437 0.398 0 0.746-0.144 1.039-0.437 0.293-0.27 0.437-0.602 0.437-1 0-0.403-0.144-0.75-0.437-1.043-0.215-0.211-0.469-0.36-0.762-0.438z" inkscape:connector-curvature="0"/>
          </g>
        </g>
      </g>
      <g id="g204">
        <g id="g206">
          <g id="g212">
            <path id="path226" style="fill-rule:evenodd;fill:url(#radialGradient214)" d="m8.922 15.321c-0.055-0.188-0.11-0.375-0.16-0.563-0.028-0.078-0.043-0.144-0.043-0.199-0.106-0.266-0.211-0.453-0.321-0.559-0.078-0.054-0.171-0.082-0.277-0.082-0.187-0.023-0.387 0.067-0.601 0.282l-0.04 0.082-0.039 0.039v0.039c-0.214 0.348-0.613 1.199-1.203 2.558-0.023 0.055-0.05 0.11-0.078 0.161l-0.121 0.281c-0.027 0.105-0.066 0.199-0.117 0.281 0 0.559 0.012 1.117 0.039 1.68 0 0.371 0.012 0.691 0.039 0.961h0.16c0.16 0 0.32 0.023 0.481 0.078 0.187-0.453 0.437-1.051 0.757-1.801 0.668-1.625 1.176-2.707 1.524-3.238zm17.84 0.199 1.636 5.281h0.481c0.109-0.426 0.254-1.027 0.441-1.801 0.16-0.667 0.305-1.253 0.442-1.761-0.16-0.239-0.297-0.481-0.403-0.719-0.531-1.012-0.879-1.652-1.039-1.922-0.293-0.453-0.535-0.652-0.718-0.598-0.11 0.028-0.243 0.172-0.403 0.442-0.027 0.051-0.078 0.172-0.16 0.359-0.078 0.184-0.172 0.426-0.277 0.719zm-7.922 0c-0.16-0.32-0.281-0.547-0.36-0.68-0.507-0.879-1.039-1.066-1.601-0.558-0.16 0.16-0.652 1-1.481 2.519l1.204 4.117h0.16c0.16-0.371 0.465-1.199 0.918-2.476 0.48-1.336 0.867-2.309 1.16-2.922z" inkscape:connector-curvature="0"/>
          </g>
        </g>
      </g>
      <g id="g228">
        <g id="g230">
          <g id="g236">
            <path id="path244" style="fill-rule:evenodd;fill:url(#radialGradient238)" d="m16.762 20.918h-0.16c-0.375 0.028-0.696 0.161-0.961 0.403-0.293 0.293-0.442 0.64-0.442 1.039 0 0.398 0.149 0.746 0.442 1.039s0.64 0.441 1.039 0.441c0.398 0 0.746-0.148 1.039-0.441 0.269-0.293 0.402-0.641 0.402-1.039 0-0.399-0.133-0.746-0.402-1.039-0.266-0.242-0.586-0.375-0.957-0.403z" inkscape:connector-curvature="0"/>
          </g>
        </g>
      </g>
      <g id="g246">
        <g id="g248">
          <g id="g254">
            <path id="path264" style="fill-rule:evenodd;fill:url(#radialGradient256)" d="m11.801 23.719c-0.16-0.027-0.336-0.039-0.52-0.039h-0.16c-0.426 0.051-0.789 0.227-1.082 0.52-0.371 0.347-0.559 0.773-0.559 1.281 0 0.504 0.188 0.934 0.559 1.277 0.348 0.348 0.762 0.524 1.242 0.524 0.504 0 0.934-0.176 1.278-0.524 0.347-0.343 0.519-0.769 0.519-1.277s-0.172-0.934-0.519-1.281c-0.211-0.215-0.465-0.375-0.758-0.481z" inkscape:connector-curvature="0"/>
          </g>
        </g>
      </g>
      <g id="g266">
        <g id="g268">
          <g id="g274">
            <path id="path284" style="fill-rule:evenodd;fill:url(#radialGradient276)" d="m4.199 21.879c-0.16-0.027-0.32-0.039-0.48-0.039-0.293 0-0.559 0.078-0.797 0.239-0.11 0.054-0.215 0.136-0.32 0.242-0.215 0.211-0.364 0.453-0.442 0.719-0.027 0.132-0.039 0.265-0.039 0.402 0 0.426 0.16 0.797 0.481 1.117 0.32 0.32 0.691 0.481 1.117 0.481 0.453 0 0.84-0.161 1.16-0.481 0.32-0.293 0.48-0.664 0.48-1.117s-0.16-0.828-0.48-1.121c-0.211-0.215-0.438-0.36-0.68-0.442z" inkscape:connector-curvature="0"/>
          </g>
        </g>
      </g>
      <g id="g286">
        <g id="g288">
          <g id="g294">
            <path id="path304" style="fill-rule:evenodd;fill:url(#radialGradient296)" d="m2.719 20.161c-0.051 0-0.106-0.016-0.16-0.039h-0.321c-0.398 0-0.73 0.132-1 0.398-0.293 0.293-0.437 0.641-0.437 1.039 0 0.402 0.144 0.75 0.437 1.039 0.242 0.27 0.551 0.414 0.922 0.442 0.078-0.266 0.227-0.508 0.442-0.719 0.105-0.106 0.21-0.188 0.32-0.242 0.238-0.161 0.504-0.239 0.797-0.239v-0.398c-0.024-0.348-0.172-0.656-0.438-0.922-0.187-0.16-0.375-0.281-0.562-0.359z" inkscape:connector-curvature="0"/>
          </g>
        </g>
      </g>
      <g id="g306">
        <g id="g308">
          <g id="g314">
            <path id="path328" style="fill-rule:evenodd;fill:url(#linearGradient316)" d="m3.762 18.079c0-0.051 0.011-0.094 0.039-0.118l0.039-1.363c-0.371 0.535-0.668 1.094-0.879 1.684l-0.199 0.519-0.203 1.321c0.054 0.023 0.109 0.039 0.16 0.039l0.242-0.602c0.184-0.504 0.453-1 0.801-1.48z" inkscape:connector-curvature="0"/>
          </g>
        </g>
      </g>
      <g id="g330">
        <g id="g332">
          <g id="g338">
            <path id="path346" style="fill-rule:evenodd;fill:url(#radialGradient340)" d="m6.641 20.36c-0.161-0.051-0.321-0.078-0.481-0.078h-0.16c-0.293 0.051-0.547 0.183-0.762 0.398-0.265 0.238-0.398 0.547-0.398 0.918 0 0.348 0.133 0.656 0.398 0.922 0.27 0.266 0.574 0.398 0.922 0.398s0.652-0.132 0.918-0.398c0.242-0.238 0.363-0.547 0.363-0.922 0-0.371-0.121-0.68-0.363-0.918-0.133-0.133-0.277-0.238-0.437-0.32z" inkscape:connector-curvature="0"/>
          </g>
        </g>
      </g>
    </g>
  </g>
<metadata><rdf:RDF><cc:Work><dc:format>image/svg+xml</dc:format><dc:type rdf:resource="http://purl.org/dc/dcmitype/StillImage"/><cc:license rdf:resource="http://creativecommons.org/licenses/publicdomain/"/><dc:publisher><cc:Agent rdf:about="http://openclipart.org/"><dc:title>Openclipart</dc:title></cc:Agent></dc:publisher></cc:Work><cc:License rdf:about="http://creativecommons.org/licenses/publicdomain/"><cc:permits rdf:resource="http://creativecommons.org/ns#Reproduction"/><cc:permits rdf:resource="http://creativecommons.org/ns#Distribution"/><cc:permits rdf:resource="http://creativecommons.org/ns#DerivativeWorks"/></cc:License></rdf:RDF></metadata></svg>
